<?xml version="1.0" standalone="no"?>
<!DOCTYPE svg PUBLIC "-//W3C//DTD SVG 20010904//EN"
 "http://www.w3.org/TR/2001/REC-SVG-20010904/DTD/svg10.dtd">
<svg version="1.0" xmlns="http://www.w3.org/2000/svg"
 width="900.000000pt" height="900.000000pt" viewBox="0 0 900.000000 900.000000"
 preserveAspectRatio="xMidYMid meet">
<metadata>
Created by potrace 1.11, written by Peter Selinger 2001-2013
</metadata>
<g transform="translate(0.000000,900.000000) scale(0.100000,-0.100000)"
fill="#000000" stroke="none">
<path d="M4357 8984 c-1 -1 -61 -5 -133 -8 -72 -4 -142 -9 -155 -11 -13 -2
-49 -6 -79 -9 -79 -8 -142 -16 -166 -21 -12 -3 -39 -7 -60 -10 -270 -39 -762
-180 -981 -280 -17 -8 -33 -15 -36 -15 -9 0 -157 -69 -272 -127 -972 -491
-1730 -1315 -2143 -2329 -71 -174 -175 -505 -206 -655 -3 -13 -7 -35 -10 -49
-11 -50 -36 -176 -40 -205 -13 -79 -25 -165 -30 -210 -4 -27 -8 -66 -11 -85
-7 -50 -14 -165 -20 -316 -4 -102 -3 -133 7 -136 7 -2 2027 -3 4488 -3 l4475
1 -1 120 c0 117 -11 320 -19 359 -3 11 -7 45 -10 75 -8 79 -32 229 -56 345
-11 55 -22 108 -24 117 -19 90 -96 352 -140 473 -162 445 -365 820 -641 1187
-119 158 -121 160 -239 292 -561 628 -1292 1090 -2090 1321 -162 47 -417 105
-525 120 -14 2 -54 8 -90 14 -36 5 -96 13 -135 16 -38 4 -77 8 -85 10 -41 10
-563 28 -573 19z"/>
<path d="M17 4395 c-7 -17 -1 -164 7 -172 11 -12 8946 -10 8955 2 10 14 15
175 4 176 -4 0 -2023 1 -4485 2 -3041 2 -4479 -1 -4481 -8z"/>
<path d="M46 3964 c8 -54 15 -99 17 -100 3 -3 8775 -8 8853 -5 17 1 31 6 31
14 0 6 3 41 8 77 4 36 8 74 9 85 1 20 -6 20 -4465 23 l-4466 2 13 -96z"/>
<path d="M106 3682 c-10 -2 -15 -9 -13 -16 3 -7 13 -54 23 -104 l17 -92 2206
0 c2941 -1 6402 -1 6473 0 62 0 56 -6 73 80 19 89 25 124 22 126 -4 5 -8779
10 -8801 6z"/>
<path d="M193 3277 c-3 -4 10 -55 28 -112 27 -82 38 -104 54 -107 11 -2 1921
-3 4245 -3 l4225 0 36 110 c20 61 35 111 34 113 -6 7 -8617 6 -8622 -1z"/>
<path d="M324 2889 c-2 -3 13 -44 32 -90 20 -46 41 -96 47 -111 6 -16 18 -28
27 -29 8 -1 1847 -2 4086 -3 l4070 -2 34 81 c18 44 41 97 51 118 9 20 14 37
11 38 -36 5 -8355 3 -8358 -2z"/>
<path d="M552 2388 c33 -62 66 -119 72 -125 9 -10 822 -13 3880 -13 2128 0
3870 1 3871 2 6 7 94 166 114 206 l21 42 -4009 0 -4009 0 60 -112z"/>
<path d="M730 2092 c0 -4 88 -136 147 -220 l28 -41 1825 -1 c5616 -3 5360 -4
5375 16 42 55 165 237 162 240 -4 5 -7537 10 -7537 6z"/>
<path d="M1040 1682 c-13 -5 83 -118 218 -258 7 -8 23 -14 35 -14 12 0 1463
-1 3225 -2 l3203 -3 28 25 c62 55 223 241 216 248 -5 6 -6908 9 -6925 4z"/>
<path d="M1481 1207 c41 -38 116 -103 168 -145 l95 -76 2758 -1 c2448 0 2761
2 2776 15 9 8 55 46 102 85 47 38 103 86 125 106 22 21 50 46 63 57 12 11 22
21 22 23 0 2 -1391 4 -3091 4 l-3091 0 73 -68z"/>
<path d="M1936 848 c15 -25 409 -266 464 -284 14 -4 963 -8 2109 -9 l2084 -1
110 63 c61 35 112 63 113 63 2 0 108 68 206 134 26 17 48 33 48 36 0 4 -1156
6 -2570 7 -1545 0 -2567 -3 -2564 -9z"/>
<path d="M2610 460 c0 -3 62 -31 138 -63 170 -73 443 -165 624 -212 l138 -35
993 0 993 0 168 45 c237 63 349 103 714 252 6 3 12 8 12 12 0 3 -851 6 -1890
6 -1040 0 -1890 -2 -1890 -5z"/>
<path d="M4038 69 c59 -22 581 -32 797 -15 61 5 118 9 127 9 9 1 15 4 12 7 -3
2 -219 5 -479 5 -261 0 -467 -3 -457 -6z"/>
</g>
</svg>
